# xmcd
#
# Track frame offsets: 
#        150
#        14418
#        27784
#        37718
#        46738
#        57231
#        69105
#        82411
#        92264
#        102258
#        114360
#        126943
#        138012
#        149811
#        161643
#        173167
#        187194
#        196549
#        209606
#        219290
#
# Disc length: 3069 seconds
#
# Revision: 0
# Processed by: cddbd v1.5.2PL0 Copyright (c) Steve Scherf et al.
# Submitted via: ExactAudioCopy v1.0b3
#
DISCID=0f0bfb14
DTITLE=Petula Clark - First Hits and Rarities
DYEAR=2009
DGENRE=Oldies
TTITLE0=Mariandl
TTITLE1=Tennessee Waltz
TTITLE2=Where Did My Snowman Go
TTITLE3=Temptation Rag
TTITLE4=The Little Shoemaker
TTITLE5=Suddenly There's A Valley
TTITLE6=Majorca
TTITLE7=Chee Chee Oo Chee
TTITLE8=Crazy Otto Rag
TTITLE9=With Your Love
TTITLE10=Fortune Teller
TTITLE11=Memories Are Made Of This
TTITLE12=A Million Stars Above
TTITLE13=With All My Heart
TTITLE14=Gonna Find Me A Bluebird
TTITLE15=Goodnight My Love
TTITLE16=Alone
TTITLE17=As Time Goes By
TTITLE18=You Are My Lucky Star
TTITLE19=Baby Lover
EXTD=
EXTT0=
EXTT1=
EXTT2=
EXTT3=
EXTT4=
EXTT5=
EXTT6=
EXTT7=
EXTT8=
EXTT9=
EXTT10=
EXTT11=
EXTT12=
EXTT13=
EXTT14=
EXTT15=
EXTT16=
EXTT17=
EXTT18=
EXTT19=
PLAYORDER=
